0.06m3min_grf.mot
version=1
nRows=10
nColumns 19
inDegrees=yes
endheader
time	1_ground_force_vx	1_ground_force_vy	1_ground_force_vz	1_ground_force_px	1_ground_force_py	1_ground_force_pz	1_ground_torque_x	1_ground_torque_y	1_ground_torque_z	2_ground_force_vx	2_ground_force_vy	2_ground_force_vz	2_ground_force_px	2_ground_force_py	2_ground_force_pz	2_ground_torque_x	2_ground_torque_y	2_ground_torque_z
            1.253500	           -3.024875	          378.753381	          -44.088073	           -0.259732	            0.005868	           -0.323646	           -0.015513	            1.942420	           -0.226104	            2.283569	          397.805913	           44.029048	           -0.257060	            0.005453	           -0.668940	            0.004048	            0.705090	            0.078039
            1.254000	           -2.793669	          375.326049	          -43.553058	           -0.259413	            0.005870	           -0.324058	           -0.014144	            1.900296	           -0.220512	            2.387176	          395.044521	           43.878368	           -0.257100	            0.005453	           -0.669023	            0.004466	            0.739006	            0.082083
            1.254500	           -2.517188	          371.899648	          -43.247431	           -0.259557	            0.005870	           -0.324048	           -0.013165	            1.945097	           -0.226191	            2.722231	          393.021770	           43.401720	           -0.256967	            0.005454	           -0.669131	            0.004606	            0.664929	            0.073429
            1.255000	           -1.828208	          370.816220	          -42.795217	           -0.259253	            0.005869	           -0.323783	           -0.009609	            1.948999	           -0.224930	            2.873914	          389.893102	           43.015065	           -0.257342	            0.005451	           -0.668726	            0.004462	            0.605405	            0.066791
            1.255500	           -1.734824	          367.749786	          -42.350025	           -0.259171	            0.005868	           -0.323536	           -0.008934	            1.893939	           -0.218106	            2.836164	          387.316515	           42.536605	           -0.256986	            0.005453	           -0.668743	            0.004753	            0.649111	            0.071288
            1.256000	           -1.458670	          364.864605	          -42.133800	           -0.259142	            0.005868	           -0.323533	           -0.007507	            1.877826	           -0.216847	            2.891469	          384.924240	           42.105691	           -0.257240	            0.005452	           -0.668888	            0.004965	            0.660999	            0.072305
            1.256500	           -1.273355	          361.076868	          -41.646068	           -0.259196	            0.005867	           -0.323357	           -0.006499	            1.842862	           -0.212553	            2.996405	          381.794566	           41.953697	           -0.257250	            0.005451	           -0.668668	            0.005232	            0.666621	            0.073252
            1.257000	           -1.226125	          359.092216	          -41.241985	           -0.259239	            0.005867	           -0.323319	           -0.006210	            1.818689	           -0.208878	            3.142149	          380.322891	           41.666812	           -0.256811	            0.005456	           -0.669509	            0.005786	            0.700314	            0.076724
            1.257500	           -0.950038	          356.567567	          -41.024206	           -0.259078	            0.005867	           -0.323508	           -0.004812	            1.805990	           -0.207785	            3.202085	          376.641798	           41.184370	           -0.257261	            0.005451	           -0.668650	            0.006283	            0.738999	            0.080807
            1.258000	           -0.443869	          352.419557	          -40.584677	           -0.259218	            0.005869	           -0.323879	           -0.002264	            1.797456	           -0.206995	            3.065338	          375.537892	           40.758134	           -0.256927	            0.005454	           -0.669066	            0.005890	            0.721606	            0.078318
